<svg viewBox="0 0 750 750" width="24" height="24" xml:space="preserve" xmlns="http://www.w3.org/2000/svg" enable-background="new 0 0 750 750"><path d="M642.7 245.4h-461c-6.9 0-12.5 5.6-12.5 12.5s5.6 12.5 12.5 12.5h461c6.9 0 12.5-5.6 12.5-12.5s-5.6-12.5-12.5-12.5zM642.7 315.4h-461c-6.9 0-12.5 5.6-12.5 12.5s5.6 12.5 12.5 12.5h461c6.9 0 12.5-5.6 12.5-12.5s-5.6-12.5-12.5-12.5zM642.7 385.4h-461c-6.9 0-12.5 5.6-12.5 12.5s5.6 12.5 12.5 12.5h461c6.9 0 12.5-5.6 12.5-12.5s-5.6-12.5-12.5-12.5zM459.2 460.4H181.7c-6.9 0-12.5 5.6-12.5 12.5s5.6 12.5 12.5 12.5h277.5c6.9 0 12.5-5.6 12.5-12.5s-5.6-12.5-12.5-12.5z" fill="#877eff" class="fill-414042"></path><path d="M666.8 124.9v-.3c0-46-37.4-83.5-83.5-83.5H92.2c-46 0-83.5 37.4-83.5 83.5v315.1c0 43 32.7 78.5 74.5 83v.3c0 46 37.4 83.5 83.5 83.5h347.2c4.8 0 9.3 1.9 12.6 5.2l89.9 89.9c4.8 4.8 11.2 7.4 17.7 7.4 3.2 0 6.5-.6 9.6-1.9 9.4-3.9 15.5-13 15.5-23.2v-77.4c45.4-.8 82-37.9 82-83.5V207.9c0-43-32.6-78.5-74.4-83zm-583.6 83v289.6c-28-4.3-49.5-28.6-49.5-57.8V124.6c0-32.2 26.2-58.5 58.5-58.5h491.1c32.2 0 58.4 26.1 58.5 58.3H166.7c-46 0-83.5 37.4-83.5 83.5zm633 315c0 32.2-26.2 58.5-58.5 58.5-13 0-23.5 10.6-23.5 23.5v78.8h-.1L544.3 594c-8.1-8.1-18.9-12.6-30.3-12.6H166.7c-32.2 0-58.5-26.2-58.5-58.5v-315c0-32.2 26.2-58.5 58.5-58.5h491.1c32.2 0 58.5 26.2 58.5 58.5v315z" fill="#877eff" class="fill-414042"></path></svg>